%TF.GenerationSoftware,KiCad,Pcbnew,9.0.7*%
%TF.CreationDate,2026-06-05T09:07:44+08:00*%
%TF.ProjectId,relay,72656c61-792e-46b6-9963-61645f706362,rev?*%
%TF.SameCoordinates,Original*%
%TF.FileFunction,Copper,L1,Top*%
%TF.FilePolarity,Positive*%
%FSLAX46Y46*%
G04 Gerber Fmt 4.6, Leading zero omitted, Abs format (unit mm)*
G04 Created by KiCad (PCBNEW 9.0.7) date 2026-06-05 09:07:44*
%MOMM*%
%LPD*%
G01*
G04 APERTURE LIST*
G04 Aperture macros list*
%AMRoundRect*
0 Rectangle with rounded corners*
0 $1 Rounding radius*
0 $2 $3 $4 $5 $6 $7 $8 $9 X,Y pos of 4 corners*
0 Add a 4 corners polygon primitive as box body*
4,1,4,$2,$3,$4,$5,$6,$7,$8,$9,$2,$3,0*
0 Add four circle primitives for the rounded corners*
1,1,$1+$1,$2,$3*
1,1,$1+$1,$4,$5*
1,1,$1+$1,$6,$7*
1,1,$1+$1,$8,$9*
0 Add four rect primitives between the rounded corners*
20,1,$1+$1,$2,$3,$4,$5,0*
20,1,$1+$1,$4,$5,$6,$7,0*
20,1,$1+$1,$6,$7,$8,$9,0*
20,1,$1+$1,$8,$9,$2,$3,0*%
G04 Aperture macros list end*
%TA.AperFunction,SMDPad,CuDef*%
%ADD10RoundRect,0.150000X-0.587500X-0.150000X0.587500X-0.150000X0.587500X0.150000X-0.587500X0.150000X0*%
%TD*%
%TA.AperFunction,SMDPad,CuDef*%
%ADD11RoundRect,0.200000X0.200000X0.275000X-0.200000X0.275000X-0.200000X-0.275000X0.200000X-0.275000X0*%
%TD*%
%TA.AperFunction,SMDPad,CuDef*%
%ADD12RoundRect,0.225000X-0.225000X-0.375000X0.225000X-0.375000X0.225000X0.375000X-0.225000X0.375000X0*%
%TD*%
%TA.AperFunction,ComponentPad*%
%ADD13R,1.700000X1.700000*%
%TD*%
%TA.AperFunction,ComponentPad*%
%ADD14C,1.700000*%
%TD*%
%TA.AperFunction,ComponentPad*%
%ADD15C,3.000000*%
%TD*%
%TA.AperFunction,ComponentPad*%
%ADD16C,2.500000*%
%TD*%
%TA.AperFunction,ComponentPad*%
%ADD17RoundRect,0.250000X1.250000X-1.250000X1.250000X1.250000X-1.250000X1.250000X-1.250000X-1.250000X0*%
%TD*%
%TA.AperFunction,SMDPad,CuDef*%
%ADD18RoundRect,0.250000X-0.650000X1.000000X-0.650000X-1.000000X0.650000X-1.000000X0.650000X1.000000X0*%
%TD*%
%TA.AperFunction,SMDPad,CuDef*%
%ADD19RoundRect,0.225000X0.375000X-0.225000X0.375000X0.225000X-0.375000X0.225000X-0.375000X-0.225000X0*%
%TD*%
%TA.AperFunction,SMDPad,CuDef*%
%ADD20RoundRect,0.200000X-0.200000X-0.275000X0.200000X-0.275000X0.200000X0.275000X-0.200000X0.275000X0*%
%TD*%
%TA.AperFunction,ViaPad*%
%ADD21C,0.600000*%
%TD*%
%TA.AperFunction,Conductor*%
%ADD22C,1.000000*%
%TD*%
%TA.AperFunction,Conductor*%
%ADD23C,0.200000*%
%TD*%
%TA.AperFunction,Conductor*%
%ADD24C,5.000000*%
%TD*%
G04 APERTURE END LIST*
D10*
%TO.P,Q4,1,B*%
%TO.N,Net-(Q4-B)*%
X54942500Y-46040000D03*
%TO.P,Q4,2,E*%
%TO.N,/GND*%
X54942500Y-47940000D03*
%TO.P,Q4,3,C*%
%TO.N,Net-(D14-A)*%
X56817500Y-46990000D03*
%TD*%
%TO.P,Q3,1,B*%
%TO.N,Net-(Q3-B)*%
X65102500Y-39690000D03*
%TO.P,Q3,2,E*%
%TO.N,/GND*%
X65102500Y-41590000D03*
%TO.P,Q3,3,C*%
%TO.N,Net-(D13-A)*%
X66977500Y-40640000D03*
%TD*%
D11*
%TO.P,R13,1*%
%TO.N,Net-(Q3-B)*%
X63055000Y-39370000D03*
%TO.P,R13,2*%
%TO.N,Net-(U2-Pin_4)*%
X61405000Y-39370000D03*
%TD*%
D10*
%TO.P,Q1,1,B*%
%TO.N,Net-(Q1-B)*%
X65102500Y-46040000D03*
%TO.P,Q1,2,E*%
%TO.N,/GND*%
X65102500Y-47940000D03*
%TO.P,Q1,3,C*%
%TO.N,Net-(D11-A)*%
X66977500Y-46990000D03*
%TD*%
D12*
%TO.P,D11,1,K*%
%TO.N,/5V*%
X69470000Y-54610000D03*
%TO.P,D11,2,A*%
%TO.N,Net-(D11-A)*%
X72770000Y-54610000D03*
%TD*%
%TO.P,D12,1,K*%
%TO.N,/5V*%
X69470000Y-27940000D03*
%TO.P,D12,2,A*%
%TO.N,Net-(D12-A)*%
X72770000Y-27940000D03*
%TD*%
D13*
%TO.P,U3,1,Pin_1*%
%TO.N,/5V*%
X66040000Y-33070000D03*
D14*
%TO.P,U3,2,Pin_2*%
%TO.N,Net-(U1-Pin_1)*%
X63500000Y-33070000D03*
%TO.P,U3,3,Pin_3*%
%TO.N,Net-(U3-Pin_3)*%
X60960000Y-33070000D03*
%TO.P,U3,4,Pin_4*%
%TO.N,/GND*%
X58420000Y-33070000D03*
%TD*%
D13*
%TO.P,J5,1,Pin_1*%
%TO.N,/3V3*%
X43180000Y-58420000D03*
D14*
%TO.P,J5,2,Pin_2*%
%TO.N,Net-(J5-Pin_2)*%
X40640000Y-58420000D03*
%TD*%
D13*
%TO.P,U1,1,Pin_1*%
%TO.N,Net-(U1-Pin_1)*%
X27940000Y-53340000D03*
D14*
%TO.P,U1,2,Pin_2*%
%TO.N,Net-(U1-Pin_2)*%
X30480000Y-53340000D03*
%TO.P,U1,3,Pin_3*%
%TO.N,unconnected-(U1-Pin_3-Pad3)*%
X33020000Y-53340000D03*
%TO.P,U1,4,Pin_4*%
%TO.N,Net-(U1-Pin_4)*%
X35560000Y-53340000D03*
%TO.P,U1,5,Pin_5*%
%TO.N,unconnected-(U1-Pin_5-Pad5)*%
X38100000Y-53340000D03*
%TO.P,U1,6,Pin_6*%
%TO.N,unconnected-(U1-Pin_6-Pad6)*%
X40640000Y-53340000D03*
%TO.P,U1,7,Pin_7*%
%TO.N,unconnected-(U1-Pin_7-Pad7)*%
X43180000Y-53340000D03*
%TO.P,U1,8,Pin_8*%
%TO.N,unconnected-(U1-Pin_8-Pad8)*%
X45720000Y-53340000D03*
%TD*%
D13*
%TO.P,U8,1,Pin_1*%
%TO.N,Net-(D1-A)*%
X33020000Y-63500000D03*
D14*
%TO.P,U8,2,Pin_2*%
X33020000Y-66040000D03*
%TD*%
D11*
%TO.P,R12,1*%
%TO.N,Net-(Q2-B)*%
X52895000Y-39370000D03*
%TO.P,R12,2*%
%TO.N,Net-(U2-Pin_2)*%
X51245000Y-39370000D03*
%TD*%
D13*
%TO.P,U5,1,Pin_1*%
%TO.N,/GND*%
X33020000Y-74168000D03*
D14*
%TO.P,U5,2,Pin_2*%
X33020000Y-76708000D03*
%TD*%
D15*
%TO.P,K4,1*%
%TO.N,/ACL*%
X111760000Y-60960000D03*
D16*
%TO.P,K4,2*%
%TO.N,/5V*%
X105710000Y-62910000D03*
D15*
%TO.P,K4,3*%
%TO.N,Net-(J4-Pin_4)*%
X105710000Y-75110000D03*
%TO.P,K4,4*%
%TO.N,unconnected-(K4-Pad4)*%
X117760000Y-75160000D03*
D16*
%TO.P,K4,5*%
%TO.N,Net-(D14-A)*%
X117710000Y-62910000D03*
%TD*%
D13*
%TO.P,U2,1,Pin_1*%
%TO.N,Net-(U2-Pin_1)*%
X45720000Y-38100000D03*
D14*
%TO.P,U2,2,Pin_2*%
%TO.N,Net-(U2-Pin_2)*%
X43180000Y-38100000D03*
%TO.P,U2,3,Pin_3*%
%TO.N,unconnected-(U2-Pin_3-Pad3)*%
X40640000Y-38100000D03*
%TO.P,U2,4,Pin_4*%
%TO.N,Net-(U2-Pin_4)*%
X38100000Y-38100000D03*
%TO.P,U2,5,Pin_5*%
%TO.N,Net-(U2-Pin_5)*%
X35560000Y-38100000D03*
%TO.P,U2,6,Pin_6*%
%TO.N,/3V3*%
X33020000Y-38100000D03*
%TO.P,U2,7,Pin_7*%
%TO.N,/GND*%
X30480000Y-38100000D03*
%TO.P,U2,8,Pin_8*%
%TO.N,/5V*%
X27940000Y-38100000D03*
%TD*%
D10*
%TO.P,Q2,1,B*%
%TO.N,Net-(Q2-B)*%
X54942500Y-39690000D03*
%TO.P,Q2,2,E*%
%TO.N,/GND*%
X54942500Y-41590000D03*
%TO.P,Q2,3,C*%
%TO.N,Net-(D12-A)*%
X56817500Y-40640000D03*
%TD*%
D17*
%TO.P,J1,1,Pin_1*%
%TO.N,/GND*%
X35560000Y-86360000D03*
D15*
%TO.P,J1,2,Pin_2*%
%TO.N,/12V*%
X40640000Y-86360000D03*
%TO.P,J1,3,Pin_3*%
%TO.N,/CANH*%
X45720000Y-86360000D03*
%TO.P,J1,4,Pin_4*%
%TO.N,/CANL*%
X50800000Y-86360000D03*
%TD*%
%TO.P,K3,1*%
%TO.N,/ACL*%
X111760000Y-35560000D03*
D16*
%TO.P,K3,2*%
%TO.N,/5V*%
X105710000Y-37510000D03*
D15*
%TO.P,K3,3*%
%TO.N,Net-(J4-Pin_2)*%
X105710000Y-49710000D03*
%TO.P,K3,4*%
%TO.N,unconnected-(K3-Pad4)*%
X117760000Y-49760000D03*
D16*
%TO.P,K3,5*%
%TO.N,Net-(D13-A)*%
X117710000Y-37510000D03*
%TD*%
D17*
%TO.P,J3,1,Pin_1*%
%TO.N,/ACN*%
X76200000Y-86360000D03*
D15*
%TO.P,J3,2,Pin_2*%
%TO.N,Net-(J3-Pin_2)*%
X81280000Y-86360000D03*
%TO.P,J3,3,Pin_3*%
%TO.N,/ACN*%
X86360000Y-86360000D03*
%TO.P,J3,4,Pin_4*%
%TO.N,Net-(J3-Pin_4)*%
X91440000Y-86360000D03*
%TD*%
%TO.P,K2,1*%
%TO.N,/ACL*%
X78740000Y-33020000D03*
D16*
%TO.P,K2,2*%
%TO.N,/5V*%
X72690000Y-34970000D03*
D15*
%TO.P,K2,3*%
%TO.N,Net-(J3-Pin_4)*%
X72690000Y-47170000D03*
%TO.P,K2,4*%
%TO.N,unconnected-(K2-Pad4)*%
X84740000Y-47220000D03*
D16*
%TO.P,K2,5*%
%TO.N,Net-(D12-A)*%
X84690000Y-34970000D03*
%TD*%
D17*
%TO.P,J4,1,Pin_1*%
%TO.N,/ACN*%
X96520000Y-86360000D03*
D15*
%TO.P,J4,2,Pin_2*%
%TO.N,Net-(J4-Pin_2)*%
X101600000Y-86360000D03*
%TO.P,J4,3,Pin_3*%
%TO.N,/ACN*%
X106680000Y-86360000D03*
%TO.P,J4,4,Pin_4*%
%TO.N,Net-(J4-Pin_4)*%
X111760000Y-86360000D03*
%TD*%
D11*
%TO.P,R1,1*%
%TO.N,Net-(U3-Pin_3)*%
X51625000Y-33020000D03*
%TO.P,R1,2*%
%TO.N,Net-(U2-Pin_5)*%
X49975000Y-33020000D03*
%TD*%
%TO.P,R14,1*%
%TO.N,Net-(Q4-B)*%
X52895000Y-45720000D03*
%TO.P,R14,2*%
%TO.N,Net-(U1-Pin_2)*%
X51245000Y-45720000D03*
%TD*%
D12*
%TO.P,D14,1,K*%
%TO.N,/5V*%
X116460000Y-57150000D03*
%TO.P,D14,2,A*%
%TO.N,Net-(D14-A)*%
X119760000Y-57150000D03*
%TD*%
D13*
%TO.P,U4,1,Pin_1*%
%TO.N,unconnected-(U4-Pin_1-Pad1)*%
X58420000Y-53340000D03*
D14*
%TO.P,U4,2,Pin_2*%
%TO.N,/CANL*%
X60960000Y-53340000D03*
%TO.P,U4,3,Pin_3*%
%TO.N,/CANH*%
X63500000Y-53340000D03*
%TO.P,U4,4,Pin_4*%
%TO.N,unconnected-(U4-Pin_4-Pad4)*%
X66040000Y-53340000D03*
%TD*%
D18*
%TO.P,D1,1,K*%
%TO.N,/5V*%
X27940000Y-58960000D03*
%TO.P,D1,2,A*%
%TO.N,Net-(D1-A)*%
X27940000Y-62960000D03*
%TD*%
D19*
%TO.P,D13,1,K*%
%TO.N,/5V*%
X101600000Y-37210000D03*
%TO.P,D13,2,A*%
%TO.N,Net-(D13-A)*%
X101600000Y-33910000D03*
%TD*%
D20*
%TO.P,R4,1*%
%TO.N,Net-(U1-Pin_4)*%
X34735000Y-58420000D03*
%TO.P,R4,2*%
%TO.N,Net-(J5-Pin_2)*%
X36385000Y-58420000D03*
%TD*%
D11*
%TO.P,R11,1*%
%TO.N,Net-(Q1-B)*%
X63055000Y-45720000D03*
%TO.P,R11,2*%
%TO.N,Net-(U2-Pin_1)*%
X61405000Y-45720000D03*
%TD*%
D17*
%TO.P,J2,1,Pin_1*%
%TO.N,/ACN*%
X55880000Y-86360000D03*
D15*
%TO.P,J2,2,Pin_2*%
%TO.N,/ACL*%
X60960000Y-86360000D03*
%TO.P,J2,3,Pin_3*%
%TO.N,unconnected-(J2-Pin_3-Pad3)*%
X66040000Y-86360000D03*
%TO.P,J2,4,Pin_4*%
%TO.N,unconnected-(J2-Pin_4-Pad4)*%
X71120000Y-86360000D03*
%TD*%
%TO.P,K1,1*%
%TO.N,/ACL*%
X78740000Y-58420000D03*
D16*
%TO.P,K1,2*%
%TO.N,/5V*%
X72690000Y-60370000D03*
D15*
%TO.P,K1,3*%
%TO.N,Net-(J3-Pin_2)*%
X72690000Y-72570000D03*
%TO.P,K1,4*%
%TO.N,unconnected-(K1-Pad4)*%
X84740000Y-72620000D03*
D16*
%TO.P,K1,5*%
%TO.N,Net-(D11-A)*%
X84690000Y-60370000D03*
%TD*%
D13*
%TO.P,U7,1,Pin_1*%
%TO.N,/12V*%
X51544000Y-63500000D03*
D14*
%TO.P,U7,2,Pin_2*%
X51544000Y-66040000D03*
%TD*%
D13*
%TO.P,U6,1,Pin_1*%
%TO.N,/GND*%
X51544000Y-74168000D03*
D14*
%TO.P,U6,2,Pin_2*%
X51544000Y-76708000D03*
%TD*%
D21*
%TO.N,/5V*%
X69850000Y-53340000D03*
%TO.N,/GND*%
X59690000Y-43180000D03*
X59690000Y-49530000D03*
%TO.N,Net-(U1-Pin_4)*%
X33020000Y-58420000D03*
%TO.N,Net-(D11-A)*%
X74930000Y-55880000D03*
%TO.N,Net-(D12-A)*%
X62230000Y-41910000D03*
X72390000Y-30480000D03*
%TO.N,Net-(D14-A)*%
X58420000Y-48260000D03*
%TO.N,Net-(U2-Pin_1)*%
X49530000Y-44450000D03*
%TO.N,Net-(U2-Pin_2)*%
X43180000Y-43180000D03*
%TO.N,Net-(U2-Pin_4)*%
X53340000Y-38100000D03*
%TD*%
D22*
%TO.N,/12V*%
X40640000Y-68580000D02*
X43180000Y-66040000D01*
X40640000Y-86360000D02*
X40640000Y-68580000D01*
X51544000Y-66040000D02*
X51544000Y-63500000D01*
X43180000Y-66040000D02*
X51544000Y-66040000D01*
D23*
%TO.N,Net-(J5-Pin_2)*%
X40640000Y-58420000D02*
X36385000Y-58420000D01*
%TO.N,Net-(U2-Pin_5)*%
X35560000Y-38100000D02*
X40640000Y-33020000D01*
X40640000Y-33020000D02*
X49975000Y-33020000D01*
%TO.N,/5V*%
X71120000Y-33400000D02*
X72690000Y-34970000D01*
X71070000Y-33070000D02*
X71120000Y-33020000D01*
X66040000Y-33070000D02*
X68580000Y-33070000D01*
X108630000Y-37510000D02*
X105710000Y-37510000D01*
X115570000Y-52070000D02*
X115570000Y-44450000D01*
X69470000Y-54610000D02*
X69470000Y-57150000D01*
X69470000Y-53720000D02*
X69850000Y-53340000D01*
X68580000Y-28830000D02*
X69470000Y-27940000D01*
X69470000Y-57150000D02*
X72690000Y-60370000D01*
X69470000Y-54610000D02*
X69470000Y-53720000D01*
D22*
X26001000Y-40039000D02*
X27940000Y-38100000D01*
X38100000Y-27940000D02*
X60960000Y-27940000D01*
D23*
X68580000Y-33070000D02*
X71070000Y-33070000D01*
D22*
X27940000Y-38100000D02*
X38100000Y-27940000D01*
D23*
X105710000Y-62910000D02*
X105710000Y-58120000D01*
X68580000Y-33070000D02*
X68580000Y-28830000D01*
X105410000Y-37210000D02*
X105710000Y-37510000D01*
D22*
X60960000Y-27940000D02*
X66040000Y-33020000D01*
X27940000Y-58420000D02*
X26001000Y-56481000D01*
D23*
X115570000Y-44450000D02*
X108630000Y-37510000D01*
X66040000Y-33020000D02*
X66040000Y-33070000D01*
X71120000Y-33020000D02*
X71120000Y-33400000D01*
D22*
X26001000Y-56481000D02*
X26001000Y-40039000D01*
X27940000Y-58960000D02*
X27940000Y-58420000D01*
D23*
X116460000Y-57150000D02*
X116460000Y-52960000D01*
X106680000Y-57150000D02*
X116460000Y-57150000D01*
X116460000Y-52960000D02*
X115570000Y-52070000D01*
X105710000Y-58120000D02*
X106680000Y-57150000D01*
X101600000Y-37210000D02*
X105410000Y-37210000D01*
%TO.N,Net-(U3-Pin_3)*%
X51625000Y-33020000D02*
X53340000Y-33020000D01*
X53340000Y-33020000D02*
X55880000Y-35560000D01*
X55880000Y-35560000D02*
X58470000Y-35560000D01*
X58470000Y-35560000D02*
X60960000Y-33070000D01*
%TO.N,Net-(U1-Pin_1)*%
X59740000Y-36830000D02*
X52070000Y-36830000D01*
X27940000Y-44450000D02*
X27940000Y-53340000D01*
X31750000Y-40640000D02*
X27940000Y-44450000D01*
X48260000Y-40640000D02*
X31750000Y-40640000D01*
X52070000Y-36830000D02*
X48260000Y-40640000D01*
X63500000Y-33070000D02*
X59740000Y-36830000D01*
%TO.N,/GND*%
X63512500Y-43180000D02*
X65102500Y-41590000D01*
D22*
X38100000Y-30480000D02*
X55880000Y-30480000D01*
D23*
X54942500Y-41590000D02*
X56532500Y-43180000D01*
X63512500Y-49530000D02*
X65102500Y-47940000D01*
D22*
X30480000Y-38100000D02*
X38100000Y-30480000D01*
X33020000Y-74168000D02*
X33020000Y-76708000D01*
D23*
X56532500Y-43180000D02*
X59690000Y-43180000D01*
X55880000Y-30480000D02*
X55880000Y-30530000D01*
X54942500Y-47940000D02*
X56532500Y-49530000D01*
X59690000Y-49530000D02*
X63512500Y-49530000D01*
D22*
X51544000Y-74168000D02*
X51544000Y-76708000D01*
D23*
X56532500Y-49530000D02*
X59690000Y-49530000D01*
D22*
X55880000Y-30530000D02*
X58420000Y-33070000D01*
D23*
X59690000Y-43180000D02*
X63512500Y-43180000D01*
%TO.N,/CANL*%
X53340000Y-71120000D02*
X60960000Y-63500000D01*
X48260000Y-83820000D02*
X48260000Y-71120000D01*
X50800000Y-86360000D02*
X48260000Y-83820000D01*
X48260000Y-71120000D02*
X53340000Y-71120000D01*
X60960000Y-63500000D02*
X60960000Y-53340000D01*
%TO.N,/CANH*%
X45720000Y-71120000D02*
X48260000Y-68580000D01*
X53340000Y-55880000D02*
X53340000Y-53340000D01*
X53340000Y-53340000D02*
X55880000Y-50800000D01*
X48260000Y-68580000D02*
X53340000Y-68580000D01*
X55880000Y-58420000D02*
X53340000Y-55880000D01*
X53340000Y-68580000D02*
X55880000Y-66040000D01*
X55880000Y-66040000D02*
X55880000Y-58420000D01*
X45720000Y-86360000D02*
X45720000Y-71120000D01*
X63500000Y-50800000D02*
X63500000Y-53340000D01*
X55880000Y-50800000D02*
X63500000Y-50800000D01*
%TO.N,Net-(U1-Pin_4)*%
X34735000Y-58420000D02*
X33020000Y-58420000D01*
D22*
%TO.N,Net-(D1-A)*%
X33020000Y-63500000D02*
X33020000Y-66040000D01*
X27940000Y-62960000D02*
X32480000Y-62960000D01*
X32480000Y-62960000D02*
X33020000Y-63500000D01*
D24*
%TO.N,/ACL*%
X78740000Y-66040000D02*
X78740000Y-58541000D01*
X66040000Y-66040000D02*
X78740000Y-66040000D01*
X60960000Y-86360000D02*
X60960000Y-71120000D01*
X60960000Y-71120000D02*
X66040000Y-66040000D01*
%TO.N,Net-(J3-Pin_2)*%
X72690000Y-72570000D02*
X81280000Y-81160000D01*
X81280000Y-81160000D02*
X81280000Y-86360000D01*
%TO.N,Net-(J3-Pin_4)*%
X72690000Y-47170000D02*
X78740000Y-53220000D01*
X78740000Y-53220000D02*
X78740000Y-53340000D01*
X91440000Y-53340000D02*
X91440000Y-86360000D01*
X78740000Y-53340000D02*
X91440000Y-53340000D01*
%TO.N,Net-(J4-Pin_4)*%
X108250000Y-75110000D02*
X111760000Y-78620000D01*
X105710000Y-75110000D02*
X108250000Y-75110000D01*
X111760000Y-86360000D02*
X111760000Y-78620000D01*
%TO.N,Net-(J4-Pin_2)*%
X105710000Y-49710000D02*
X99060000Y-56360000D01*
X101600000Y-86360000D02*
X101600000Y-81280000D01*
X101600000Y-81280000D02*
X99060000Y-78740000D01*
X99060000Y-78740000D02*
X99060000Y-56360000D01*
D23*
%TO.N,Net-(D11-A)*%
X66977500Y-46990000D02*
X68580000Y-48592500D01*
X74930000Y-55880000D02*
X73660000Y-54610000D01*
X72770000Y-53720000D02*
X72770000Y-54610000D01*
X68580000Y-49530000D02*
X72770000Y-53720000D01*
X73660000Y-54610000D02*
X72770000Y-54610000D01*
X68580000Y-48592500D02*
X68580000Y-49530000D01*
%TO.N,Net-(D12-A)*%
X56817500Y-40640000D02*
X60960000Y-40640000D01*
X72390000Y-30480000D02*
X72390000Y-29210000D01*
X72770000Y-27940000D02*
X82550000Y-27940000D01*
X83820000Y-34100000D02*
X84690000Y-34970000D01*
X60960000Y-40640000D02*
X62230000Y-41910000D01*
X72390000Y-29210000D02*
X72770000Y-28830000D01*
X83820000Y-29210000D02*
X83820000Y-34100000D01*
X82550000Y-27940000D02*
X83820000Y-29210000D01*
X72770000Y-28830000D02*
X72770000Y-27940000D01*
%TO.N,Net-(D13-A)*%
X114890000Y-37510000D02*
X117710000Y-37510000D01*
X114300000Y-38100000D02*
X114890000Y-37510000D01*
X101600000Y-33910000D02*
X106300000Y-33910000D01*
X66977500Y-40640000D02*
X90170000Y-40640000D01*
X106300000Y-33910000D02*
X110490000Y-38100000D01*
X96520000Y-34290000D02*
X96900000Y-33910000D01*
X110490000Y-38100000D02*
X114300000Y-38100000D01*
X96900000Y-33910000D02*
X101600000Y-33910000D01*
X90170000Y-40640000D02*
X96520000Y-34290000D01*
%TO.N,Net-(D14-A)*%
X58087500Y-48260000D02*
X58420000Y-48260000D01*
X117710000Y-62910000D02*
X119760000Y-60860000D01*
X56817500Y-46990000D02*
X58087500Y-48260000D01*
X119760000Y-60860000D02*
X119760000Y-57150000D01*
%TO.N,Net-(Q1-B)*%
X63055000Y-45720000D02*
X64782500Y-45720000D01*
X64782500Y-45720000D02*
X65102500Y-46040000D01*
%TO.N,Net-(Q2-B)*%
X54622500Y-39370000D02*
X54942500Y-39690000D01*
X52895000Y-39370000D02*
X54622500Y-39370000D01*
%TO.N,Net-(Q3-B)*%
X63055000Y-39370000D02*
X64782500Y-39370000D01*
X64782500Y-39370000D02*
X65102500Y-39690000D01*
%TO.N,Net-(Q4-B)*%
X54622500Y-45720000D02*
X54942500Y-46040000D01*
X52895000Y-45720000D02*
X54622500Y-45720000D01*
%TO.N,Net-(U2-Pin_1)*%
X60960000Y-44450000D02*
X49530000Y-44450000D01*
X61405000Y-44895000D02*
X60960000Y-44450000D01*
X61405000Y-45720000D02*
X61405000Y-44895000D01*
%TO.N,Net-(U2-Pin_2)*%
X51245000Y-39370000D02*
X47435000Y-43180000D01*
X47435000Y-43180000D02*
X43180000Y-43180000D01*
%TO.N,Net-(U2-Pin_4)*%
X61405000Y-39370000D02*
X60135000Y-38100000D01*
X60135000Y-38100000D02*
X53340000Y-38100000D01*
%TO.N,Net-(U1-Pin_2)*%
X46990000Y-49530000D02*
X50800000Y-45720000D01*
X50800000Y-45720000D02*
X51245000Y-45720000D01*
X34290000Y-49530000D02*
X46990000Y-49530000D01*
X30480000Y-53340000D02*
X34290000Y-49530000D01*
%TD*%
M02*
