%TF.GenerationSoftware,KiCad,Pcbnew,9.0.7*%
%TF.CreationDate,2026-06-05T09:07:44+08:00*%
%TF.ProjectId,relay,72656c61-792e-46b6-9963-61645f706362,rev?*%
%TF.SameCoordinates,Original*%
%TF.FileFunction,Soldermask,Top*%
%TF.FilePolarity,Negative*%
%FSLAX46Y46*%
G04 Gerber Fmt 4.6, Leading zero omitted, Abs format (unit mm)*
G04 Created by KiCad (PCBNEW 9.0.7) date 2026-06-05 09:07:44*
%MOMM*%
%LPD*%
G01*
G04 APERTURE LIST*
G04 Aperture macros list*
%AMRoundRect*
0 Rectangle with rounded corners*
0 $1 Rounding radius*
0 $2 $3 $4 $5 $6 $7 $8 $9 X,Y pos of 4 corners*
0 Add a 4 corners polygon primitive as box body*
4,1,4,$2,$3,$4,$5,$6,$7,$8,$9,$2,$3,0*
0 Add four circle primitives for the rounded corners*
1,1,$1+$1,$2,$3*
1,1,$1+$1,$4,$5*
1,1,$1+$1,$6,$7*
1,1,$1+$1,$8,$9*
0 Add four rect primitives between the rounded corners*
20,1,$1+$1,$2,$3,$4,$5,0*
20,1,$1+$1,$4,$5,$6,$7,0*
20,1,$1+$1,$6,$7,$8,$9,0*
20,1,$1+$1,$8,$9,$2,$3,0*%
G04 Aperture macros list end*
%ADD10RoundRect,0.150000X-0.587500X-0.150000X0.587500X-0.150000X0.587500X0.150000X-0.587500X0.150000X0*%
%ADD11RoundRect,0.200000X0.200000X0.275000X-0.200000X0.275000X-0.200000X-0.275000X0.200000X-0.275000X0*%
%ADD12RoundRect,0.225000X-0.225000X-0.375000X0.225000X-0.375000X0.225000X0.375000X-0.225000X0.375000X0*%
%ADD13R,1.700000X1.700000*%
%ADD14C,1.700000*%
%ADD15C,3.200000*%
%ADD16C,3.000000*%
%ADD17C,2.500000*%
%ADD18RoundRect,0.250000X1.250000X-1.250000X1.250000X1.250000X-1.250000X1.250000X-1.250000X-1.250000X0*%
%ADD19RoundRect,0.250000X-0.650000X1.000000X-0.650000X-1.000000X0.650000X-1.000000X0.650000X1.000000X0*%
%ADD20RoundRect,0.225000X0.375000X-0.225000X0.375000X0.225000X-0.375000X0.225000X-0.375000X-0.225000X0*%
%ADD21RoundRect,0.200000X-0.200000X-0.275000X0.200000X-0.275000X0.200000X0.275000X-0.200000X0.275000X0*%
G04 APERTURE END LIST*
D10*
%TO.C,Q4*%
X54942500Y-46040000D03*
X54942500Y-47940000D03*
X56817500Y-46990000D03*
%TD*%
%TO.C,Q3*%
X65102500Y-39690000D03*
X65102500Y-41590000D03*
X66977500Y-40640000D03*
%TD*%
D11*
%TO.C,R13*%
X63055000Y-39370000D03*
X61405000Y-39370000D03*
%TD*%
D10*
%TO.C,Q1*%
X65102500Y-46040000D03*
X65102500Y-47940000D03*
X66977500Y-46990000D03*
%TD*%
D12*
%TO.C,D11*%
X69470000Y-54610000D03*
X72770000Y-54610000D03*
%TD*%
%TO.C,D12*%
X69470000Y-27940000D03*
X72770000Y-27940000D03*
%TD*%
D13*
%TO.C,U3*%
X66040000Y-33070000D03*
D14*
X63500000Y-33070000D03*
X60960000Y-33070000D03*
X58420000Y-33070000D03*
%TD*%
D13*
%TO.C,J5*%
X43180000Y-58420000D03*
D14*
X40640000Y-58420000D03*
%TD*%
D15*
%TO.C,REF\u002A\u002A*%
X116840000Y-30480000D03*
%TD*%
D13*
%TO.C,U1*%
X27940000Y-53340000D03*
D14*
X30480000Y-53340000D03*
X33020000Y-53340000D03*
X35560000Y-53340000D03*
X38100000Y-53340000D03*
X40640000Y-53340000D03*
X43180000Y-53340000D03*
X45720000Y-53340000D03*
%TD*%
D13*
%TO.C,U8*%
X33020000Y-63500000D03*
D14*
X33020000Y-66040000D03*
%TD*%
D15*
%TO.C,REF\u002A\u002A*%
X30480000Y-86360000D03*
%TD*%
D11*
%TO.C,R12*%
X52895000Y-39370000D03*
X51245000Y-39370000D03*
%TD*%
D13*
%TO.C,U5*%
X33020000Y-74168000D03*
D14*
X33020000Y-76708000D03*
%TD*%
D15*
%TO.C,REF\u002A\u002A*%
X116840000Y-86360000D03*
%TD*%
D16*
%TO.C,K4*%
X111760000Y-60960000D03*
D17*
X105710000Y-62910000D03*
D16*
X105710000Y-75110000D03*
X117760000Y-75160000D03*
D17*
X117710000Y-62910000D03*
%TD*%
D13*
%TO.C,U2*%
X45720000Y-38100000D03*
D14*
X43180000Y-38100000D03*
X40640000Y-38100000D03*
X38100000Y-38100000D03*
X35560000Y-38100000D03*
X33020000Y-38100000D03*
X30480000Y-38100000D03*
X27940000Y-38100000D03*
%TD*%
D10*
%TO.C,Q2*%
X54942500Y-39690000D03*
X54942500Y-41590000D03*
X56817500Y-40640000D03*
%TD*%
D18*
%TO.C,J1*%
X35560000Y-86360000D03*
D16*
X40640000Y-86360000D03*
X45720000Y-86360000D03*
X50800000Y-86360000D03*
%TD*%
D15*
%TO.C,REF\u002A\u002A*%
X30480000Y-30480000D03*
%TD*%
D16*
%TO.C,K3*%
X111760000Y-35560000D03*
D17*
X105710000Y-37510000D03*
D16*
X105710000Y-49710000D03*
X117760000Y-49760000D03*
D17*
X117710000Y-37510000D03*
%TD*%
D18*
%TO.C,J3*%
X76200000Y-86360000D03*
D16*
X81280000Y-86360000D03*
X86360000Y-86360000D03*
X91440000Y-86360000D03*
%TD*%
%TO.C,K2*%
X78740000Y-33020000D03*
D17*
X72690000Y-34970000D03*
D16*
X72690000Y-47170000D03*
X84740000Y-47220000D03*
D17*
X84690000Y-34970000D03*
%TD*%
D18*
%TO.C,J4*%
X96520000Y-86360000D03*
D16*
X101600000Y-86360000D03*
X106680000Y-86360000D03*
X111760000Y-86360000D03*
%TD*%
D11*
%TO.C,R1*%
X51625000Y-33020000D03*
X49975000Y-33020000D03*
%TD*%
%TO.C,R14*%
X52895000Y-45720000D03*
X51245000Y-45720000D03*
%TD*%
D12*
%TO.C,D14*%
X116460000Y-57150000D03*
X119760000Y-57150000D03*
%TD*%
D13*
%TO.C,U4*%
X58420000Y-53340000D03*
D14*
X60960000Y-53340000D03*
X63500000Y-53340000D03*
X66040000Y-53340000D03*
%TD*%
D19*
%TO.C,D1*%
X27940000Y-58960000D03*
X27940000Y-62960000D03*
%TD*%
D20*
%TO.C,D13*%
X101600000Y-37210000D03*
X101600000Y-33910000D03*
%TD*%
D21*
%TO.C,R4*%
X34735000Y-58420000D03*
X36385000Y-58420000D03*
%TD*%
D11*
%TO.C,R11*%
X63055000Y-45720000D03*
X61405000Y-45720000D03*
%TD*%
D18*
%TO.C,J2*%
X55880000Y-86360000D03*
D16*
X60960000Y-86360000D03*
X66040000Y-86360000D03*
X71120000Y-86360000D03*
%TD*%
%TO.C,K1*%
X78740000Y-58420000D03*
D17*
X72690000Y-60370000D03*
D16*
X72690000Y-72570000D03*
X84740000Y-72620000D03*
D17*
X84690000Y-60370000D03*
%TD*%
D13*
%TO.C,U7*%
X51544000Y-63500000D03*
D14*
X51544000Y-66040000D03*
%TD*%
D13*
%TO.C,U6*%
X51544000Y-74168000D03*
D14*
X51544000Y-76708000D03*
%TD*%
M02*
