%TF.GenerationSoftware,KiCad,Pcbnew,9.0.7*%
%TF.CreationDate,2026-06-05T09:07:44+08:00*%
%TF.ProjectId,relay,72656c61-792e-46b6-9963-61645f706362,rev?*%
%TF.SameCoordinates,Original*%
%TF.FileFunction,Soldermask,Bot*%
%TF.FilePolarity,Negative*%
%FSLAX46Y46*%
G04 Gerber Fmt 4.6, Leading zero omitted, Abs format (unit mm)*
G04 Created by KiCad (PCBNEW 9.0.7) date 2026-06-05 09:07:44*
%MOMM*%
%LPD*%
G01*
G04 APERTURE LIST*
G04 Aperture macros list*
%AMRoundRect*
0 Rectangle with rounded corners*
0 $1 Rounding radius*
0 $2 $3 $4 $5 $6 $7 $8 $9 X,Y pos of 4 corners*
0 Add a 4 corners polygon primitive as box body*
4,1,4,$2,$3,$4,$5,$6,$7,$8,$9,$2,$3,0*
0 Add four circle primitives for the rounded corners*
1,1,$1+$1,$2,$3*
1,1,$1+$1,$4,$5*
1,1,$1+$1,$6,$7*
1,1,$1+$1,$8,$9*
0 Add four rect primitives between the rounded corners*
20,1,$1+$1,$2,$3,$4,$5,0*
20,1,$1+$1,$4,$5,$6,$7,0*
20,1,$1+$1,$6,$7,$8,$9,0*
20,1,$1+$1,$8,$9,$2,$3,0*%
G04 Aperture macros list end*
%ADD10R,1.700000X1.700000*%
%ADD11C,1.700000*%
%ADD12C,3.200000*%
%ADD13C,3.000000*%
%ADD14C,2.500000*%
%ADD15RoundRect,0.250000X1.250000X-1.250000X1.250000X1.250000X-1.250000X1.250000X-1.250000X-1.250000X0*%
G04 APERTURE END LIST*
D10*
%TO.C,U3*%
X66040000Y-33070000D03*
D11*
X63500000Y-33070000D03*
X60960000Y-33070000D03*
X58420000Y-33070000D03*
%TD*%
D10*
%TO.C,J5*%
X43180000Y-58420000D03*
D11*
X40640000Y-58420000D03*
%TD*%
D12*
%TO.C,REF\u002A\u002A*%
X116840000Y-30480000D03*
%TD*%
D10*
%TO.C,U1*%
X27940000Y-53340000D03*
D11*
X30480000Y-53340000D03*
X33020000Y-53340000D03*
X35560000Y-53340000D03*
X38100000Y-53340000D03*
X40640000Y-53340000D03*
X43180000Y-53340000D03*
X45720000Y-53340000D03*
%TD*%
D10*
%TO.C,U8*%
X33020000Y-63500000D03*
D11*
X33020000Y-66040000D03*
%TD*%
D12*
%TO.C,REF\u002A\u002A*%
X30480000Y-86360000D03*
%TD*%
D10*
%TO.C,U5*%
X33020000Y-74168000D03*
D11*
X33020000Y-76708000D03*
%TD*%
D12*
%TO.C,REF\u002A\u002A*%
X116840000Y-86360000D03*
%TD*%
D13*
%TO.C,K4*%
X111760000Y-60960000D03*
D14*
X105710000Y-62910000D03*
D13*
X105710000Y-75110000D03*
X117760000Y-75160000D03*
D14*
X117710000Y-62910000D03*
%TD*%
D10*
%TO.C,U2*%
X45720000Y-38100000D03*
D11*
X43180000Y-38100000D03*
X40640000Y-38100000D03*
X38100000Y-38100000D03*
X35560000Y-38100000D03*
X33020000Y-38100000D03*
X30480000Y-38100000D03*
X27940000Y-38100000D03*
%TD*%
D15*
%TO.C,J1*%
X35560000Y-86360000D03*
D13*
X40640000Y-86360000D03*
X45720000Y-86360000D03*
X50800000Y-86360000D03*
%TD*%
D12*
%TO.C,REF\u002A\u002A*%
X30480000Y-30480000D03*
%TD*%
D13*
%TO.C,K3*%
X111760000Y-35560000D03*
D14*
X105710000Y-37510000D03*
D13*
X105710000Y-49710000D03*
X117760000Y-49760000D03*
D14*
X117710000Y-37510000D03*
%TD*%
D15*
%TO.C,J3*%
X76200000Y-86360000D03*
D13*
X81280000Y-86360000D03*
X86360000Y-86360000D03*
X91440000Y-86360000D03*
%TD*%
%TO.C,K2*%
X78740000Y-33020000D03*
D14*
X72690000Y-34970000D03*
D13*
X72690000Y-47170000D03*
X84740000Y-47220000D03*
D14*
X84690000Y-34970000D03*
%TD*%
D15*
%TO.C,J4*%
X96520000Y-86360000D03*
D13*
X101600000Y-86360000D03*
X106680000Y-86360000D03*
X111760000Y-86360000D03*
%TD*%
D10*
%TO.C,U4*%
X58420000Y-53340000D03*
D11*
X60960000Y-53340000D03*
X63500000Y-53340000D03*
X66040000Y-53340000D03*
%TD*%
D15*
%TO.C,J2*%
X55880000Y-86360000D03*
D13*
X60960000Y-86360000D03*
X66040000Y-86360000D03*
X71120000Y-86360000D03*
%TD*%
%TO.C,K1*%
X78740000Y-58420000D03*
D14*
X72690000Y-60370000D03*
D13*
X72690000Y-72570000D03*
X84740000Y-72620000D03*
D14*
X84690000Y-60370000D03*
%TD*%
D10*
%TO.C,U7*%
X51544000Y-63500000D03*
D11*
X51544000Y-66040000D03*
%TD*%
D10*
%TO.C,U6*%
X51544000Y-74168000D03*
D11*
X51544000Y-76708000D03*
%TD*%
M02*
