M48
; DRILL file {KiCad 9.0.7} date 2026-06-05T09:07:45+0800
; FORMAT={-:-/ absolute / metric / decimal}
; #@! TF.CreationDate,2026-06-05T09:07:46+08:00
; #@! TF.GenerationSoftware,Kicad,Pcbnew,9.0.7
; #@! TF.FileFunction,MixedPlating,1,2
FMAT,2
METRIC
; #@! TA.AperFunction,Plated,PTH,ViaDrill
T1C0.300
; #@! TA.AperFunction,Plated,PTH,ComponentDrill
T2C1.000
; #@! TA.AperFunction,Plated,PTH,ComponentDrill
T3C1.300
; #@! TA.AperFunction,NonPlated,NPTH,ComponentDrill
T4C3.200
%
G90
G05
T1
X33.02Y-58.42
X43.18Y-43.18
X49.53Y-44.45
X53.34Y-38.1
X58.42Y-48.26
X59.69Y-43.18
X59.69Y-49.53
X62.23Y-41.91
X69.85Y-53.34
X72.39Y-30.48
X74.93Y-55.88
T2
X27.94Y-38.1
X27.94Y-53.34
X30.48Y-38.1
X30.48Y-53.34
X33.02Y-38.1
X33.02Y-53.34
X33.02Y-63.5
X33.02Y-66.04
X33.02Y-74.168
X33.02Y-76.708
X35.56Y-38.1
X35.56Y-53.34
X38.1Y-38.1
X38.1Y-53.34
X40.64Y-38.1
X40.64Y-53.34
X40.64Y-58.42
X43.18Y-38.1
X43.18Y-53.34
X43.18Y-58.42
X45.72Y-38.1
X45.72Y-53.34
X51.544Y-63.5
X51.544Y-66.04
X51.544Y-74.168
X51.544Y-76.708
X58.42Y-33.07
X58.42Y-53.34
X60.96Y-33.07
X60.96Y-53.34
X63.5Y-33.07
X63.5Y-53.34
X66.04Y-33.07
X66.04Y-53.34
X72.69Y-34.97
X72.69Y-60.37
X84.69Y-34.97
X84.69Y-60.37
X105.71Y-37.51
X105.71Y-62.91
X117.71Y-37.51
X117.71Y-62.91
T3
X35.56Y-86.36
X40.64Y-86.36
X45.72Y-86.36
X50.8Y-86.36
X55.88Y-86.36
X60.96Y-86.36
X66.04Y-86.36
X71.12Y-86.36
X72.69Y-47.17
X72.69Y-72.57
X76.2Y-86.36
X78.74Y-33.02
X78.74Y-58.42
X81.28Y-86.36
X84.74Y-47.22
X84.74Y-72.62
X86.36Y-86.36
X91.44Y-86.36
X96.52Y-86.36
X101.6Y-86.36
X105.71Y-49.71
X105.71Y-75.11
X106.68Y-86.36
X111.76Y-35.56
X111.76Y-60.96
X111.76Y-86.36
X117.76Y-49.76
X117.76Y-75.16
T4
X30.48Y-30.48
X30.48Y-86.36
X116.84Y-30.48
X116.84Y-86.36
M30
